<?xml version="1.0" encoding="UTF-8" standalone="no"?>
<!DOCTYPE svg PUBLIC "-//W3C//DTD SVG 1.1//EN" "http://www.w3.org/Graphics/SVG/1.1/DTD/svg11.dtd">
<svg xmlns="http://www.w3.org/2000/svg" version="1.1" viewBox="0.00 0.00 800.00 800.00">
<g stroke-width="2.00" fill="none" stroke-linecap="butt">
<path stroke="#8a6327" vector-effect="non-scaling-stroke" d="
  M 307.38 221.93
  L 307.46 239.60"
/>
<path stroke="#88233e" vector-effect="non-scaling-stroke" d="
  M 307.46 239.60
  L 307.52 257.90
  A 0.73 0.73 0.0 0 0 308.25 258.62
  L 488.75 258.55
  A 0.63 0.62 0.0 0 0 489.38 257.93
  L 489.46 239.60"
/>
<path stroke="#8a6327" vector-effect="non-scaling-stroke" d="
  M 489.46 239.60
  L 489.40 221.38"
/>
<path stroke="#8a8d97" vector-effect="non-scaling-stroke" d="
  M 489.40 221.38
  L 489.67 202.96
  Q 489.67 202.50 489.21 202.50
  L 307.78 202.43
  Q 307.29 202.43 307.29 202.92
  L 307.38 221.93"
/>
<path stroke="#ffd58f" vector-effect="non-scaling-stroke" d="
  M 489.40 221.38
  Q 405.44 221.24 321.50 221.34
  Q 314.50 221.35 307.38 221.93"
/>
<path stroke="#fd6b37" vector-effect="non-scaling-stroke" d="
  M 489.46 239.60
  L 307.46 239.60"
/>
<path stroke="#862527" vector-effect="non-scaling-stroke" d="
  M 397.31 278.41
  L 336.23 278.29
  A 0.50 0.50 0.0 0 0 335.73 278.78
  L 335.53 299.91"
/>
<path stroke="#884e21" vector-effect="non-scaling-stroke" d="
  M 335.53 299.91
  L 335.55 362.32"
/>
<path stroke="#862527" vector-effect="non-scaling-stroke" d="
  M 335.55 362.32
  L 335.53 380.08
  Q 335.53 381.76 337.22 381.76
  L 365.23 381.72
  A 0.46 0.46 0.0 0 0 365.69 381.26
  L 365.65 362.10"
/>
<path stroke="#8a6327" vector-effect="non-scaling-stroke" d="
  M 365.65 362.10
  L 365.66 340.59
  Q 365.66 340.01 366.24 340.01
  L 381.10 340.01
  A 0.86 0.86 0.0 0 0 381.95 339.15
  L 381.88 322.50
  Q 381.88 321.60 382.78 321.61
  L 397.83 321.66"
/>
<path stroke="#196e65" vector-effect="non-scaling-stroke" d="
  M 397.83 321.66
  L 413.92 321.44
  A 0.31 0.31 0.0 0 1 414.24 321.75
  L 414.25 339.75
  Q 414.25 340.26 414.76 340.26
  L 429.99 340.23
  Q 430.52 340.23 430.52 340.76
  L 430.61 362.18"
/>
<path stroke="#0f3769" vector-effect="non-scaling-stroke" d="
  M 430.61 362.18
  L 430.68 381.47
  A 0.34 0.34 0.0 0 0 431.02 381.81
  L 460.99 381.78
  A 0.31 0.30 0.0 0 0 461.30 381.48
  L 461.40 362.56"
/>
<path stroke="#0e5482" vector-effect="non-scaling-stroke" d="
  M 461.40 362.56
  L 461.46 300.79"
/>
<path stroke="#0f3769" vector-effect="non-scaling-stroke" d="
  M 461.46 300.79
  L 461.36 279.45
  A 0.90 0.89 90.0 0 0 460.48 278.56
  L 430.35 278.36"
/>
<path stroke="#0e504f" vector-effect="non-scaling-stroke" d="
  M 430.35 278.36
  Q 413.70 277.68 397.31 278.41"
/>
<path stroke="#086d8a" vector-effect="non-scaling-stroke" d="
  M 430.35 278.36
  L 429.25 298.90
  Q 429.25 299.01 429.15 299.07
  Q 429.11 299.09 429.06 299.11
  Q 428.85 299.18 428.85 299.31
  Q 428.87 299.51 429.06 299.74"
/>
<path stroke="#12a486" vector-effect="non-scaling-stroke" d="
  M 429.06 299.74
  Q 415.39 299.78 401.75 299.76
  Q 400.04 299.76 397.73 300.34"
/>
<path stroke="#839948" vector-effect="non-scaling-stroke" d="
  M 397.73 300.34
  Q 397.47 300.11 397.31 299.80"
/>
<path stroke="#7f5b48" vector-effect="non-scaling-stroke" d="
  M 397.31 299.80
  L 397.31 278.41"
/>
<path stroke="#fb6d20" vector-effect="non-scaling-stroke" d="
  M 397.31 299.80
  L 366.43 300.07
  Q 366.28 300.07 366.18 300.17
  Q 366.07 300.27 365.92 300.26"
/>
<path stroke="#f9591a" vector-effect="non-scaling-stroke" d="
  M 365.92 300.26
  L 335.53 299.91"
/>
<path stroke="#0871bd" vector-effect="non-scaling-stroke" d="
  M 461.46 300.79
  L 461.17 299.55
  Q 461.07 299.14 460.69 299.31
  Q 459.68 299.74 459.25 299.74
  Q 446.50 299.54 433.75 299.62
  Q 431.86 299.63 429.88 299.95"
/>
<path stroke="#138ba0" vector-effect="non-scaling-stroke" d="
  M 429.88 299.95
  L 429.06 299.74"
/>
<path stroke="#138ba0" vector-effect="non-scaling-stroke" d="
  M 445.58 362.03
  L 430.61 362.18"
/>
<path stroke="#8eb65e" vector-effect="non-scaling-stroke" d="
  M 397.73 300.34
  L 397.83 321.66"
/>
<path stroke="#fb6d20" vector-effect="non-scaling-stroke" d="
  M 365.65 362.10
  L 350.87 362.05"
/>
<path stroke="#fd971a" vector-effect="non-scaling-stroke" d="
  M 365.92 300.26
  L 366.07 320.90
  A 1.10 1.10 0.0 0 1 364.97 322.01
  L 352.22 321.94
  Q 350.97 321.94 350.96 323.19
  L 350.87 362.05"
/>
<path stroke="#f9591a" vector-effect="non-scaling-stroke" d="
  M 350.87 362.05
  L 335.55 362.32"
/>
<path stroke="#0871bd" vector-effect="non-scaling-stroke" d="
  M 461.40 362.56
  L 445.58 362.03"
/>
<path stroke="#12a8b9" vector-effect="non-scaling-stroke" d="
  M 445.58 362.03
  L 445.56 322.45
  A 0.85 0.84 0.3 0 0 444.72 321.61
  L 431.25 321.47
  A 1.52 1.52 0.0 0 1 429.74 319.94
  L 429.88 299.95"
/>
<path stroke="#88233e" vector-effect="non-scaling-stroke" d="
  M 477.74 312.65
  L 477.64 398.07
  Q 477.64 398.61 478.01 399.00
  Q 479.07 400.13 478.37 400.18"
/>
<path stroke="#8a8d97" vector-effect="non-scaling-stroke" d="
  M 478.37 400.18
  L 415.03 400.49
  Q 414.69 400.50 414.69 400.84
  L 414.74 414.99"
/>
<path stroke="#5f6d83" vector-effect="non-scaling-stroke" d="
  M 414.74 414.99
  L 414.65 418.12
  A 0.88 0.87 0.3 0 1 413.78 418.97
  L 382.78 419.26
  A 0.43 0.43 0.0 0 1 382.35 418.85
  L 382.16 414.66"
/>
<path stroke="#8a8d97" vector-effect="non-scaling-stroke" d="
  M 382.16 414.66
  L 382.11 401.04
  A 0.57 0.57 0.0 0 0 381.54 400.47
  L 318.82 400.40"
/>
<path stroke="#88233e" vector-effect="non-scaling-stroke" d="
  M 318.82 400.40
  L 318.77 312.72"
/>
<path stroke="#4e1939" vector-effect="non-scaling-stroke" d="
  M 318.77 312.72
  L 318.79 279.02
  A 0.54 0.53 -90.0 0 0 318.26 278.48
  L 308.01 278.49
  Q 307.55 278.49 307.55 278.95
  L 307.66 313.02"
/>
<path stroke="#88233e" vector-effect="non-scaling-stroke" d="
  M 307.66 313.02
  L 307.62 400.30"
/>
<path stroke="#8a8d97" vector-effect="non-scaling-stroke" d="
  M 307.62 400.30
  L 286.33 454.03"
/>
<path stroke="#8a6327" vector-effect="non-scaling-stroke" d="
  M 286.33 454.03
  L 286.48 471.54"
/>
<path stroke="#88233e" vector-effect="non-scaling-stroke" d="
  M 286.48 471.54
  L 286.47 491.74"
/>
<path stroke="#4e1939" vector-effect="non-scaling-stroke" d="
  M 286.47 491.74
  L 286.54 508.59
  A 0.96 0.95 89.7 0 0 287.49 509.54
  L 509.74 509.48
  A 0.73 0.72 0.0 0 0 510.47 508.76
  L 510.55 491.68"
/>
<path stroke="#88233e" vector-effect="non-scaling-stroke" d="
  M 510.55 491.68
  L 510.63 471.56"
/>
<path stroke="#8a6327" vector-effect="non-scaling-stroke" d="
  M 510.63 471.56
  L 510.54 454.20"
/>
<path stroke="#8a8d97" vector-effect="non-scaling-stroke" d="
  M 510.54 454.20
  Q 509.62 451.82 508.50 448.96
  Q 500.34 428.15 491.73 407.52
  Q 490.21 403.89 489.36 400.23"
/>
<path stroke="#88233e" vector-effect="non-scaling-stroke" d="
  M 489.36 400.23
  L 489.33 312.92"
/>
<path stroke="#4e1939" vector-effect="non-scaling-stroke" d="
  M 489.33 312.92
  L 489.42 278.87
  A 0.79 0.79 0.0 0 0 488.63 278.08
  L 480.18 278.08
  Q 477.70 278.07 477.70 280.55
  L 477.74 312.65"
/>
<path stroke="#c02149" vector-effect="non-scaling-stroke" d="
  M 489.33 312.92
  L 477.74 312.65"
/>
<path stroke="#fd95a7" vector-effect="non-scaling-stroke" d="
  M 489.36 400.23
  L 478.37 400.18"
/>
<path stroke="#d4e0ec" vector-effect="non-scaling-stroke" d="
  M 382.16 414.66
  L 366.34 414.71
  A 0.59 0.58 -1.0 0 0 365.76 415.30
  L 365.78 423.75
  A 0.84 0.84 0.0 0 1 364.96 424.59
  L 349.77 424.90"
/>
<path stroke="#8a8d97" vector-effect="non-scaling-stroke" d="
  M 349.77 424.90
  L 349.38 420.43"
/>
<path stroke="#fd95a7" vector-effect="non-scaling-stroke" d="
  M 349.38 420.43
  Q 348.00 416.55 342.55 414.93
  C 336.03 412.99 324.06 412.31 318.85 417.36
  Q 316.79 419.36 317.14 422.64"
/>
<path stroke="#c38ba1" vector-effect="non-scaling-stroke" d="
  M 317.14 422.64
  L 316.70 436.21"
/>
<path stroke="#d4e0ec" vector-effect="non-scaling-stroke" d="
  M 316.70 436.21
  L 316.28 445.92
  A 0.82 0.82 0.0 0 0 317.10 446.77
  L 349.34 446.86
  A 0.45 0.45 0.0 0 0 349.79 446.40
  L 349.66 437.75
  A 0.90 0.90 0.0 0 1 350.59 436.83
  L 364.76 437.26
  A 0.77 0.76 0.4 0 0 365.55 436.49
  L 365.50 427.79
  Q 365.50 426.83 366.50 426.83
  L 429.88 426.81
  A 1.32 1.32 0.0 0 1 431.20 428.13
  L 431.22 436.74
  Q 431.22 437.27 431.74 437.27
  L 446.23 437.23
  A 0.75 0.75 0.0 0 1 446.99 437.98
  L 446.98 445.99
  A 0.77 0.77 0.0 0 0 447.75 446.76
  L 478.58 446.73
  A 1.05 1.04 -1.1 0 0 479.63 445.65
  L 479.40 438.19
  A 0.91 0.90 -0.9 0 1 480.31 437.26
  L 492.64 437.25
  Q 493.54 437.25 493.54 436.36
  L 493.56 425.06
  A 0.73 0.73 0.0 0 0 492.81 424.33
  L 479.49 424.76"
/>
<path stroke="#8a8d97" vector-effect="non-scaling-stroke" d="
  M 479.49 424.76
  L 479.07 421.22"
/>
<path stroke="#8ee0ce" vector-effect="non-scaling-stroke" d="
  M 479.07 421.22
  C 478.76 417.71 475.42 415.68 472.26 414.68
  Q 461.66 411.32 451.75 415.63
  C 447.54 417.46 446.05 420.13 447.09 424.62"
/>
<path stroke="#d4e0ec" vector-effect="non-scaling-stroke" d="
  M 447.09 424.62
  L 431.78 424.53
  A 1.01 1.01 0.0 0 1 430.78 423.51
  L 430.82 415.49
  A 0.76 0.76 0.0 0 0 430.04 414.72
  L 414.74 414.99"
/>
<path stroke="#ffd58f" vector-effect="non-scaling-stroke" d="
  M 510.54 454.20
  L 431.41 454.14"
/>
<path stroke="#d4e0ec" vector-effect="non-scaling-stroke" d="
  M 431.41 454.14
  L 430.72 443.06
  A 1.21 1.21 0.0 0 0 429.51 441.92
  L 415.09 442.01"
/>
<path stroke="#8a8d97" vector-effect="non-scaling-stroke" d="
  M 415.09 442.01
  L 415.07 438.88"
/>
<path stroke="#ffd58f" vector-effect="non-scaling-stroke" d="
  M 415.07 438.88
  Q 411.18 433.09 402.75 432.18
  C 397.34 431.59 381.15 432.26 382.16 440.72"
/>
<path stroke="#fb9790" vector-effect="non-scaling-stroke" d="
  M 382.16 440.72
  L 382.27 453.88"
/>
<path stroke="#ffd58f" vector-effect="non-scaling-stroke" d="
  M 382.27 453.88
  L 286.33 454.03"
/>
<path stroke="#fd95a7" vector-effect="non-scaling-stroke" d="
  M 318.82 400.40
  L 307.62 400.30"
/>
<path stroke="#4e1939" vector-effect="non-scaling-stroke" d="
  M 333.91 441.54
  L 334.48 426.64"
/>
<path stroke="#88233e" vector-effect="non-scaling-stroke" d="
  M 349.38 420.43
  Q 343.57 426.00 334.48 426.64"
/>
<path stroke="#c02149" vector-effect="non-scaling-stroke" d="
  M 334.48 426.64
  Q 333.45 426.52 331.83 426.61
  Q 330.22 426.71 329.18 426.58
  Q 322.94 425.79 317.14 422.64"
/>
<path stroke="#196e65" vector-effect="non-scaling-stroke" d="
  M 479.07 421.22
  Q 473.22 425.24 464.87 426.76"
/>
<path stroke="#12a486" vector-effect="non-scaling-stroke" d="
  M 464.87 426.76
  Q 463.64 426.17 461.01 427.01
  A 1.36 1.31 47.5 0 1 460.04 426.95
  C 456.42 425.26 452.84 424.78 448.37 423.39
  Q 446.92 422.94 447.09 424.62"
/>
<path stroke="#8a6327" vector-effect="non-scaling-stroke" d="
  M 415.07 438.88
  C 413.02 440.36 411.07 441.93 408.84 442.85
  Q 403.67 444.97 398.46 445.09"
/>
<path stroke="#fb6d20" vector-effect="non-scaling-stroke" d="
  M 398.46 445.09
  Q 388.82 445.15 382.16 440.72"
/>
<path stroke="#fd6b37" vector-effect="non-scaling-stroke" d="
  M 510.63 471.56
  L 286.48 471.54"
/>
<path stroke="#0e504f" vector-effect="non-scaling-stroke" d="
  M 464.35 440.66
  Q 463.27 433.01 464.87 426.76"
/>
<path stroke="#fb6d20" vector-effect="non-scaling-stroke" d="
  M 399.25 459.06
  Q 397.92 459.87 396.29 459.17
  Q 387.19 455.21 382.27 453.88"
/>
<path stroke="#d4b67c" vector-effect="non-scaling-stroke" d="
  M 431.41 454.14
  L 414.44 454.11"
/>
<path stroke="#5f6d83" vector-effect="non-scaling-stroke" d="
  M 415.09 442.01
  C 415.03 444.53 415.65 452.07 414.44 454.11"
/>
<path stroke="#8a6327" vector-effect="non-scaling-stroke" d="
  M 414.44 454.11
  L 399.25 459.06"
/>
<path stroke="#862527" vector-effect="non-scaling-stroke" d="
  M 399.25 459.06
  L 398.46 445.09"
/>
<path stroke="#58a3a4" vector-effect="non-scaling-stroke" d="
  M 447.09 424.62
  L 447.02 435.06
  A 1.11 1.10 11.2 0 0 447.72 436.10
  C 452.12 437.85 459.71 441.03 464.35 440.66"
/>
<path stroke="#5f6d83" vector-effect="non-scaling-stroke" d="
  M 464.35 440.66
  L 478.85 435.94
  A 0.73 0.72 81.2 0 0 479.35 435.25
  L 479.49 424.76"
/>
<path stroke="#976c8e" vector-effect="non-scaling-stroke" d="
  M 316.70 436.21
  Q 319.86 436.15 321.17 436.82
  Q 327.46 440.02 333.91 441.54"
/>
<path stroke="#5f6d83" vector-effect="non-scaling-stroke" d="
  M 333.91 441.54
  L 348.88 435.68
  A 1.27 1.27 0.0 0 0 349.69 434.51
  L 349.77 424.90"
/>
<path stroke="#c02149" vector-effect="non-scaling-stroke" d="
  M 318.77 312.72
  L 307.66 313.02"
/>
<path stroke="#c02149" vector-effect="non-scaling-stroke" d="
  M 510.55 491.68
  L 286.47 491.74"
/>
<path stroke="#88233e" vector-effect="non-scaling-stroke" d="
  M 381.39 362.81
  L 381.29 381.10
  A 0.69 0.69 0.0 0 0 381.98 381.80
  L 398.02 381.77"
/>
<path stroke="#4e1939" vector-effect="non-scaling-stroke" d="
  M 398.02 381.77
  L 414.27 381.65
  A 0.51 0.50 -90.0 0 0 414.77 381.14
  L 414.83 362.02"
/>
<path stroke="#88233e" vector-effect="non-scaling-stroke" d="
  M 414.83 362.02
  C 414.79 354.60 415.60 348.70 408.70 343.82
  Q 404.67 340.97 398.48 340.70"
/>
<path stroke="#8a8d97" vector-effect="non-scaling-stroke" d="
  M 398.48 340.70
  Q 378.08 341.52 381.39 362.81"
/>
<path stroke="#fd95a7" vector-effect="non-scaling-stroke" d="
  M 398.48 340.70
  C 399.56 347.85 398.43 355.03 398.65 361.72
  A 1.03 1.02 -1.4 0 1 397.63 362.78
  L 381.39 362.81"
/>
<path stroke="#c02149" vector-effect="non-scaling-stroke" d="
  M 414.83 362.02
  Q 414.42 362.09 414.43 362.37
  Q 414.45 362.58 414.23 362.58
  L 399.68 362.63
  A 1.10 1.10 0.0 0 0 398.58 363.73
  C 398.55 369.72 399.27 376.04 398.02 381.77"
/>
<path stroke="#196e65" vector-effect="non-scaling-stroke" d="
  M 307.38 546.91
  L 307.12 565.25"
/>
<path stroke="#0e504f" vector-effect="non-scaling-stroke" d="
  M 307.12 565.25
  L 307.20 582.81"
/>
<path stroke="#0f3769" vector-effect="non-scaling-stroke" d="
  M 307.20 582.81
  L 307.34 597.86
  A 0.88 0.88 0.0 0 0 308.22 598.73
  L 347.74 598.69
  A 0.66 0.66 0.0 0 0 348.40 598.03
  L 348.47 582.62"
/>
<path stroke="#0e504f" vector-effect="non-scaling-stroke" d="
  M 348.47 582.62
  C 348.51 578.74 349.40 567.97 347.74 565.13"
/>
<path stroke="#8a6327" vector-effect="non-scaling-stroke" d="
  M 347.74 565.13
  Q 347.68 565.45 348.03 565.14
  Q 348.22 564.97 348.22 564.72
  L 348.19 547.15"
/>
<path stroke="#0f3769" vector-effect="non-scaling-stroke" d="
  M 348.19 547.15
  L 348.75 530.32
  A 1.57 1.57 0.0 0 0 347.18 528.70
  L 308.32 528.78
  A 1.01 1.01 0.0 0 0 307.31 529.79
  L 307.38 546.91"
/>
<path stroke="#848062" vector-effect="non-scaling-stroke" d="
  M 348.19 547.15
  Q 339.46 547.31 331.25 547.29
  Q 330.85 547.29 330.25 547.72"
/>
<path stroke="#138ba0" vector-effect="non-scaling-stroke" d="
  M 330.25 547.72
  Q 328.99 547.04 327.25 547.05
  Q 317.45 547.06 307.38 546.91"
/>
<path stroke="#8eb65e" vector-effect="non-scaling-stroke" d="
  M 330.25 547.72
  L 330.11 565.10"
/>
<path stroke="#12a486" vector-effect="non-scaling-stroke" d="
  M 330.11 565.10
  L 307.12 565.25"
/>
<path stroke="#839948" vector-effect="non-scaling-stroke" d="
  M 347.74 565.13
  L 330.11 565.10"
/>
<path stroke="#086d8a" vector-effect="non-scaling-stroke" d="
  M 348.47 582.62
  L 307.20 582.81"
/>
<path stroke="#8a6327" vector-effect="non-scaling-stroke" d="
  M 448.67 547.09
  L 448.64 565.34"
/>
<path stroke="#0e504f" vector-effect="non-scaling-stroke" d="
  M 448.64 565.34
  L 448.44 582.51"
/>
<path stroke="#0f3769" vector-effect="non-scaling-stroke" d="
  M 448.44 582.51
  L 448.30 598.16
  A 0.68 0.67 0.4 0 0 448.98 598.84
  L 488.49 598.64
  A 0.96 0.96 0.0 0 0 489.45 597.67
  L 489.44 582.37"
/>
<path stroke="#0e504f" vector-effect="non-scaling-stroke" d="
  M 489.44 582.37
  L 489.34 565.24"
/>
<path stroke="#196e65" vector-effect="non-scaling-stroke" d="
  M 489.34 565.24
  L 489.41 546.92"
/>
<path stroke="#0f3769" vector-effect="non-scaling-stroke" d="
  M 489.41 546.92
  L 489.41 529.99
  Q 489.41 529.06 488.48 529.06
  L 449.25 529.14
  A 0.92 0.91 89.7 0 0 448.34 530.07
  L 448.67 547.09"
/>
<path stroke="#138ba0" vector-effect="non-scaling-stroke" d="
  M 489.41 546.92
  L 466.53 547.70"
/>
<path stroke="#848062" vector-effect="non-scaling-stroke" d="
  M 466.53 547.70
  Q 466.44 547.60 466.02 547.39
  Q 465.76 547.27 465.45 547.27
  Q 457.05 547.37 448.67 547.09"
/>
<path stroke="#839948" vector-effect="non-scaling-stroke" d="
  M 466.52 565.12
  L 448.64 565.34"
/>
<path stroke="#12a486" vector-effect="non-scaling-stroke" d="
  M 489.34 565.24
  L 466.52 565.12"
/>
<path stroke="#8eb65e" vector-effect="non-scaling-stroke" d="
  M 466.52 565.12
  L 466.53 547.70"
/>
<path stroke="#086d8a" vector-effect="non-scaling-stroke" d="
  M 489.44 582.37
  L 448.44 582.51"
/>
<path stroke="#4e1939" vector-effect="non-scaling-stroke" d="
  M 365.82 587.55
  L 366.11 597.46
  Q 366.14 598.54 367.22 598.53
  L 429.51 598.32
  A 1.35 1.34 0.2 0 0 430.86 596.99
  L 430.98 587.66"
/>
<path stroke="#88233e" vector-effect="non-scaling-stroke" d="
  M 430.98 587.66
  L 431.00 541.22
  A 0.97 0.97 0.0 0 0 430.03 540.25
  L 366.23 540.48
  A 0.47 0.46 -90.0 0 0 365.77 540.95
  L 365.82 587.55"
/>
<path stroke="#c02149" vector-effect="non-scaling-stroke" d="
  M 430.98 587.66
  L 365.82 587.55"
/>
<path stroke="#88233e" vector-effect="non-scaling-stroke" d="
  M 414.48 556.27
  A 0.61 0.61 0.0 0 0 413.87 555.66
  L 382.49 555.66
  A 0.61 0.61 0.0 0 0 381.88 556.27
  L 381.88 575.91
  A 0.61 0.61 0.0 0 0 382.49 576.52
  L 413.87 576.52
  A 0.61 0.61 0.0 0 0 414.48 575.91
  L 414.48 556.27"
/>
</g>
<path fill="#151a2e" d="
  M 290.31 527.66
  L 271.65 527.35
  A 1.99 1.99 0.0 0 1 269.69 525.36
  Q 269.61 490.38 269.67 454.70
  Q 269.67 453.98 269.91 453.34
  C 272.91 445.33 276.38 437.58 279.23 429.50
  C 282.67 419.72 286.23 411.91 290.64 403.44
  A 7.05 7.05 0.0 0 0 291.45 400.16
  L 291.65 187.67
  A 0.68 0.67 0.0 0 1 292.33 187.00
  L 504.95 186.93
  A 1.10 1.10 0.0 0 1 506.05 188.03
  Q 506.04 292.70 506.05 397.50
  C 506.05 398.69 506.55 400.77 507.10 402.14
  Q 516.57 425.41 526.46 448.51
  Q 527.49 450.90 527.54 455.25
  Q 527.91 487.38 527.83 519.50
  C 527.82 522.04 529.31 527.17 525.25 527.29
  Q 518.22 527.49 511.18 527.68
  C 508.77 527.75 506.45 526.43 506.47 530.27
  Q 506.64 571.62 506.29 613.06
  Q 506.27 615.52 503.80 615.52
  L 293.51 615.31
  A 1.68 1.68 0.0 0 1 291.83 613.65
  L 290.95 528.50
  A 0.85 0.65 89.9 0 0 290.31 527.66
  Z
  M 307.38 221.93
  L 307.46 239.60
  L 307.52 257.90
  A 0.73 0.73 0.0 0 0 308.25 258.62
  L 488.75 258.55
  A 0.63 0.62 0.0 0 0 489.38 257.93
  L 489.46 239.60
  L 489.40 221.38
  L 489.67 202.96
  Q 489.67 202.50 489.21 202.50
  L 307.78 202.43
  Q 307.29 202.43 307.29 202.92
  L 307.38 221.93
  Z
  M 397.31 278.41
  L 336.23 278.29
  A 0.50 0.50 0.0 0 0 335.73 278.78
  L 335.53 299.91
  L 335.55 362.32
  L 335.53 380.08
  Q 335.53 381.76 337.22 381.76
  L 365.23 381.72
  A 0.46 0.46 0.0 0 0 365.69 381.26
  L 365.65 362.10
  L 365.66 340.59
  Q 365.66 340.01 366.24 340.01
  L 381.10 340.01
  A 0.86 0.86 0.0 0 0 381.95 339.15
  L 381.88 322.50
  Q 381.88 321.60 382.78 321.61
  L 397.83 321.66
  L 413.92 321.44
  A 0.31 0.31 0.0 0 1 414.24 321.75
  L 414.25 339.75
  Q 414.25 340.26 414.76 340.26
  L 429.99 340.23
  Q 430.52 340.23 430.52 340.76
  L 430.61 362.18
  L 430.68 381.47
  A 0.34 0.34 0.0 0 0 431.02 381.81
  L 460.99 381.78
  A 0.31 0.30 0.0 0 0 461.30 381.48
  L 461.40 362.56
  L 461.46 300.79
  L 461.36 279.45
  A 0.90 0.89 90.0 0 0 460.48 278.56
  L 430.35 278.36
  Q 413.70 277.68 397.31 278.41
  Z
  M 477.74 312.65
  L 477.64 398.07
  Q 477.64 398.61 478.01 399.00
  Q 479.07 400.13 478.37 400.18
  L 415.03 400.49
  Q 414.69 400.50 414.69 400.84
  L 414.74 414.99
  L 414.65 418.12
  A 0.88 0.87 0.3 0 1 413.78 418.97
  L 382.78 419.26
  A 0.43 0.43 0.0 0 1 382.35 418.85
  L 382.16 414.66
  L 382.11 401.04
  A 0.57 0.57 0.0 0 0 381.54 400.47
  L 318.82 400.40
  L 318.77 312.72
  L 318.79 279.02
  A 0.54 0.53 -90.0 0 0 318.26 278.48
  L 308.01 278.49
  Q 307.55 278.49 307.55 278.95
  L 307.66 313.02
  L 307.62 400.30
  L 286.33 454.03
  L 286.48 471.54
  L 286.47 491.74
  L 286.54 508.59
  A 0.96 0.95 89.7 0 0 287.49 509.54
  L 509.74 509.48
  A 0.73 0.72 0.0 0 0 510.47 508.76
  L 510.55 491.68
  L 510.63 471.56
  L 510.54 454.20
  Q 509.62 451.82 508.50 448.96
  Q 500.34 428.15 491.73 407.52
  Q 490.21 403.89 489.36 400.23
  L 489.33 312.92
  L 489.42 278.87
  A 0.79 0.79 0.0 0 0 488.63 278.08
  L 480.18 278.08
  Q 477.70 278.07 477.70 280.55
  L 477.74 312.65
  Z
  M 381.39 362.81
  L 381.29 381.10
  A 0.69 0.69 0.0 0 0 381.98 381.80
  L 398.02 381.77
  L 414.27 381.65
  A 0.51 0.50 -90.0 0 0 414.77 381.14
  L 414.83 362.02
  C 414.79 354.60 415.60 348.70 408.70 343.82
  Q 404.67 340.97 398.48 340.70
  Q 378.08 341.52 381.39 362.81
  Z
  M 307.38 546.91
  L 307.12 565.25
  L 307.20 582.81
  L 307.34 597.86
  A 0.88 0.88 0.0 0 0 308.22 598.73
  L 347.74 598.69
  A 0.66 0.66 0.0 0 0 348.40 598.03
  L 348.47 582.62
  C 348.51 578.74 349.40 567.97 347.74 565.13
  Q 347.68 565.45 348.03 565.14
  Q 348.22 564.97 348.22 564.72
  L 348.19 547.15
  L 348.75 530.32
  A 1.57 1.57 0.0 0 0 347.18 528.70
  L 308.32 528.78
  A 1.01 1.01 0.0 0 0 307.31 529.79
  L 307.38 546.91
  Z
  M 448.67 547.09
  L 448.64 565.34
  L 448.44 582.51
  L 448.30 598.16
  A 0.68 0.67 0.4 0 0 448.98 598.84
  L 488.49 598.64
  A 0.96 0.96 0.0 0 0 489.45 597.67
  L 489.44 582.37
  L 489.34 565.24
  L 489.41 546.92
  L 489.41 529.99
  Q 489.41 529.06 488.48 529.06
  L 449.25 529.14
  A 0.92 0.91 89.7 0 0 448.34 530.07
  L 448.67 547.09
  Z
  M 365.82 587.55
  L 366.11 597.46
  Q 366.14 598.54 367.22 598.53
  L 429.51 598.32
  A 1.35 1.34 0.2 0 0 430.86 596.99
  L 430.98 587.66
  L 431.00 541.22
  A 0.97 0.97 0.0 0 0 430.03 540.25
  L 366.23 540.48
  A 0.47 0.46 -90.0 0 0 365.77 540.95
  L 365.82 587.55
  Z"
/>
<path fill="#ffffff" d="
  M 489.40 221.38
  Q 405.44 221.24 321.50 221.34
  Q 314.50 221.35 307.38 221.93
  L 307.29 202.92
  Q 307.29 202.43 307.78 202.43
  L 489.21 202.50
  Q 489.67 202.50 489.67 202.96
  L 489.40 221.38
  Z"
/>
<path fill="#ffab1f" d="
  M 489.40 221.38
  L 489.46 239.60
  L 307.46 239.60
  L 307.38 221.93
  Q 314.50 221.35 321.50 221.34
  Q 405.44 221.24 489.40 221.38
  Z"
/>
<path fill="#fa2b4e" d="
  M 489.46 239.60
  L 489.38 257.93
  A 0.63 0.62 -0.0 0 1 488.75 258.55
  L 308.25 258.62
  A 0.73 0.73 0.0 0 1 307.52 257.90
  L 307.46 239.60
  L 489.46 239.60
  Z"
/>
<path fill="#078670" d="
  M 430.35 278.36
  L 429.25 298.90
  Q 429.25 299.01 429.15 299.07
  Q 429.11 299.09 429.06 299.11
  Q 428.85 299.18 428.85 299.31
  Q 428.87 299.51 429.06 299.74
  Q 415.39 299.78 401.75 299.76
  Q 400.04 299.76 397.73 300.34
  Q 397.47 300.11 397.31 299.80
  L 397.31 278.41
  Q 413.70 277.68 430.35 278.36
  Z"
/>
<path fill="#861743" d="
  M 489.33 312.92
  L 477.74 312.65
  L 477.70 280.55
  Q 477.70 278.07 480.18 278.08
  L 488.63 278.08
  A 0.79 0.79 0.0 0 1 489.42 278.87
  L 489.33 312.92
  Z"
/>
<path fill="#f72f20" d="
  M 397.31 278.41
  L 397.31 299.80
  L 366.43 300.07
  Q 366.28 300.07 366.18 300.17
  Q 366.07 300.27 365.92 300.26
  L 335.53 299.91
  L 335.73 278.78
  A 0.50 0.50 0.0 0 1 336.23 278.29
  L 397.31 278.41
  Z"
/>
<path fill="#0954a4" d="
  M 461.46 300.79
  L 461.17 299.55
  Q 461.07 299.14 460.69 299.31
  Q 459.68 299.74 459.25 299.74
  Q 446.50 299.54 433.75 299.62
  Q 431.86 299.63 429.88 299.95
  L 429.06 299.74
  Q 428.87 299.51 428.85 299.31
  Q 428.85 299.18 429.06 299.11
  Q 429.11 299.09 429.15 299.07
  Q 429.25 299.01 429.25 298.90
  L 430.35 278.36
  L 460.48 278.56
  A 0.90 0.89 90.0 0 1 461.36 279.45
  L 461.46 300.79
  Z"
/>
<path fill="#861743" d="
  M 318.77 312.72
  L 307.66 313.02
  L 307.55 278.95
  Q 307.55 278.49 308.01 278.49
  L 318.26 278.48
  A 0.54 0.53 90.0 0 1 318.79 279.02
  L 318.77 312.72
  Z"
/>
<path fill="#078ed5" d="
  M 461.46 300.79
  L 461.40 362.56
  L 445.58 362.03
  L 445.56 322.45
  A 0.85 0.84 0.3 0 0 444.72 321.61
  L 431.25 321.47
  A 1.52 1.52 0.0 0 1 429.74 319.94
  L 429.88 299.95
  Q 431.86 299.63 433.75 299.62
  Q 446.50 299.54 459.25 299.74
  Q 459.68 299.74 460.69 299.31
  Q 461.07 299.14 461.17 299.55
  L 461.46 300.79
  Z"
/>
<path fill="#fa8214" d="
  M 335.53 299.91
  L 365.92 300.26
  L 366.07 320.90
  A 1.10 1.10 0.0 0 1 364.97 322.01
  L 352.22 321.94
  Q 350.97 321.94 350.96 323.19
  L 350.87 362.05
  L 335.55 362.32
  L 335.53 299.91
  Z"
/>
<path fill="#ffab1f" d="
  M 397.31 299.80
  Q 397.47 300.11 397.73 300.34
  L 397.83 321.66
  L 382.78 321.61
  Q 381.88 321.60 381.88 322.50
  L 381.95 339.15
  A 0.86 0.86 0.0 0 1 381.10 340.01
  L 366.24 340.01
  Q 365.66 340.01 365.66 340.59
  L 365.65 362.10
  L 350.87 362.05
  L 350.96 323.19
  Q 350.97 321.94 352.22 321.94
  L 364.97 322.01
  A 1.10 1.10 0.0 0 0 366.07 320.90
  L 365.92 300.26
  Q 366.07 300.27 366.18 300.17
  Q 366.28 300.07 366.43 300.07
  L 397.31 299.80
  Z"
/>
<path fill="#1cc19c" d="
  M 429.06 299.74
  L 429.88 299.95
  L 429.74 319.94
  A 1.52 1.52 0.0 0 0 431.25 321.47
  L 444.72 321.61
  A 0.85 0.84 0.3 0 1 445.56 322.45
  L 445.58 362.03
  L 430.61 362.18
  L 430.52 340.76
  Q 430.52 340.23 429.99 340.23
  L 414.76 340.26
  Q 414.25 340.26 414.25 339.75
  L 414.24 321.75
  A 0.31 0.31 0.0 0 0 413.92 321.44
  L 397.83 321.66
  L 397.73 300.34
  Q 400.04 299.76 401.75 299.76
  Q 415.39 299.78 429.06 299.74
  Z"
/>
<path fill="#fa2b4e" d="
  M 477.74 312.65
  L 489.33 312.92
  L 489.36 400.23
  L 478.37 400.18
  Q 479.07 400.13 478.01 399.00
  Q 477.64 398.61 477.64 398.07
  L 477.74 312.65
  Z"
/>
<path fill="#fa2b4e" d="
  M 318.77 312.72
  L 318.82 400.40
  L 307.62 400.30
  L 307.66 313.02
  L 318.77 312.72
  Z"
/>
<path fill="#ffffff" d="
  M 398.48 340.70
  C 399.56 347.85 398.43 355.03 398.65 361.72
  A 1.03 1.02 -1.4 0 1 397.63 362.78
  L 381.39 362.81
  Q 378.08 341.52 398.48 340.70
  Z"
/>
<path fill="#fa2b4e" d="
  M 398.48 340.70
  Q 404.67 340.97 408.70 343.82
  C 415.60 348.70 414.79 354.60 414.83 362.02
  Q 414.42 362.09 414.43 362.37
  Q 414.45 362.58 414.23 362.58
  L 399.68 362.63
  A 1.10 1.10 0.0 0 0 398.58 363.73
  C 398.55 369.72 399.27 376.04 398.02 381.77
  L 381.98 381.80
  A 0.69 0.69 0.0 0 1 381.29 381.10
  L 381.39 362.81
  L 397.63 362.78
  A 1.03 1.02 -1.4 0 0 398.65 361.72
  C 398.43 355.03 399.56 347.85 398.48 340.70
  Z"
/>
<path fill="#f72f20" d="
  M 365.65 362.10
  L 365.69 381.26
  A 0.46 0.46 0.0 0 1 365.23 381.72
  L 337.22 381.76
  Q 335.53 381.76 335.53 380.08
  L 335.55 362.32
  L 350.87 362.05
  L 365.65 362.10
  Z"
/>
<path fill="#861743" d="
  M 414.83 362.02
  L 414.77 381.14
  A 0.51 0.50 -90.0 0 1 414.27 381.65
  L 398.02 381.77
  C 399.27 376.04 398.55 369.72 398.58 363.73
  A 1.10 1.10 0.0 0 1 399.68 362.63
  L 414.23 362.58
  Q 414.45 362.58 414.43 362.37
  Q 414.42 362.09 414.83 362.02
  Z"
/>
<path fill="#0954a4" d="
  M 445.58 362.03
  L 461.40 362.56
  L 461.30 381.48
  A 0.31 0.30 0.0 0 1 460.99 381.78
  L 431.02 381.81
  A 0.34 0.34 0.0 0 1 430.68 381.47
  L 430.61 362.18
  L 445.58 362.03
  Z"
/>
<path fill="#ffffff" d="
  M 307.62 400.30
  L 318.82 400.40
  L 381.54 400.47
  A 0.57 0.57 0.0 0 1 382.11 401.04
  L 382.16 414.66
  L 366.34 414.71
  A 0.59 0.58 -1.0 0 0 365.76 415.30
  L 365.78 423.75
  A 0.84 0.84 0.0 0 1 364.96 424.59
  L 349.77 424.90
  L 349.38 420.43
  Q 348.00 416.55 342.55 414.93
  C 336.03 412.99 324.06 412.31 318.85 417.36
  Q 316.79 419.36 317.14 422.64
  L 316.70 436.21
  L 316.28 445.92
  A 0.82 0.82 0.0 0 0 317.10 446.77
  L 349.34 446.86
  A 0.45 0.45 0.0 0 0 349.79 446.40
  L 349.66 437.75
  A 0.90 0.90 0.0 0 1 350.59 436.83
  L 364.76 437.26
  A 0.77 0.76 0.4 0 0 365.55 436.49
  L 365.50 427.79
  Q 365.50 426.83 366.50 426.83
  L 429.88 426.81
  A 1.32 1.32 0.0 0 1 431.20 428.13
  L 431.22 436.74
  Q 431.22 437.27 431.74 437.27
  L 446.23 437.23
  A 0.75 0.75 0.0 0 1 446.99 437.98
  L 446.98 445.99
  A 0.77 0.77 0.0 0 0 447.75 446.76
  L 478.58 446.73
  A 1.05 1.04 -1.1 0 0 479.63 445.65
  L 479.40 438.19
  A 0.91 0.90 -0.9 0 1 480.31 437.26
  L 492.64 437.25
  Q 493.54 437.25 493.54 436.36
  L 493.56 425.06
  A 0.73 0.73 0.0 0 0 492.81 424.33
  L 479.49 424.76
  L 479.07 421.22
  C 478.76 417.71 475.42 415.68 472.26 414.68
  Q 461.66 411.32 451.75 415.63
  C 447.54 417.46 446.05 420.13 447.09 424.62
  L 431.78 424.53
  A 1.01 1.01 0.0 0 1 430.78 423.51
  L 430.82 415.49
  A 0.76 0.76 0.0 0 0 430.04 414.72
  L 414.74 414.99
  L 414.69 400.84
  Q 414.69 400.50 415.03 400.49
  L 478.37 400.18
  L 489.36 400.23
  Q 490.21 403.89 491.73 407.52
  Q 500.34 428.15 508.50 448.96
  Q 509.62 451.82 510.54 454.20
  L 431.41 454.14
  L 430.72 443.06
  A 1.21 1.21 0.0 0 0 429.51 441.92
  L 415.09 442.01
  L 415.07 438.88
  Q 411.18 433.09 402.75 432.18
  C 397.34 431.59 381.15 432.26 382.16 440.72
  L 382.27 453.88
  L 286.33 454.03
  L 307.62 400.30
  Z"
/>
<path fill="#1cc19c" d="
  M 479.07 421.22
  Q 473.22 425.24 464.87 426.76
  Q 463.64 426.17 461.01 427.01
  A 1.36 1.31 47.5 0 1 460.04 426.95
  C 456.42 425.26 452.84 424.78 448.37 423.39
  Q 446.92 422.94 447.09 424.62
  C 446.05 420.13 447.54 417.46 451.75 415.63
  Q 461.66 411.32 472.26 414.68
  C 475.42 415.68 478.76 417.71 479.07 421.22
  Z"
/>
<path fill="#fa2b4e" d="
  M 349.38 420.43
  Q 343.57 426.00 334.48 426.64
  Q 333.45 426.52 331.83 426.61
  Q 330.22 426.71 329.18 426.58
  Q 322.94 425.79 317.14 422.64
  Q 316.79 419.36 318.85 417.36
  C 324.06 412.31 336.03 412.99 342.55 414.93
  Q 348.00 416.55 349.38 420.43
  Z"
/>
<path fill="#a8c0d8" d="
  M 382.16 414.66
  L 382.35 418.85
  A 0.43 0.43 0.0 0 0 382.78 419.26
  L 413.78 418.97
  A 0.88 0.87 0.3 0 0 414.65 418.12
  L 414.74 414.99
  L 430.04 414.72
  A 0.76 0.76 0.0 0 1 430.82 415.49
  L 430.78 423.51
  A 1.01 1.01 0.0 0 0 431.78 424.53
  L 447.09 424.62
  L 447.02 435.06
  A 1.11 1.10 11.2 0 0 447.72 436.10
  C 452.12 437.85 459.71 441.03 464.35 440.66
  L 478.85 435.94
  A 0.73 0.72 81.2 0 0 479.35 435.25
  L 479.49 424.76
  L 492.81 424.33
  A 0.73 0.73 0.0 0 1 493.56 425.06
  L 493.54 436.36
  Q 493.54 437.25 492.64 437.25
  L 480.31 437.26
  A 0.91 0.90 -0.9 0 0 479.40 438.19
  L 479.63 445.65
  A 1.05 1.04 -1.1 0 1 478.58 446.73
  L 447.75 446.76
  A 0.77 0.77 0.0 0 1 446.98 445.99
  L 446.99 437.98
  A 0.75 0.75 0.0 0 0 446.23 437.23
  L 431.74 437.27
  Q 431.22 437.27 431.22 436.74
  L 431.20 428.13
  A 1.32 1.32 0.0 0 0 429.88 426.81
  L 366.50 426.83
  Q 365.50 426.83 365.50 427.79
  L 365.55 436.49
  A 0.77 0.76 0.4 0 1 364.76 437.26
  L 350.59 436.83
  A 0.90 0.90 0.0 0 0 349.66 437.75
  L 349.79 446.40
  A 0.45 0.45 0.0 0 1 349.34 446.86
  L 317.10 446.77
  A 0.82 0.82 0.0 0 1 316.28 445.92
  L 316.70 436.21
  Q 319.86 436.15 321.17 436.82
  Q 327.46 440.02 333.91 441.54
  L 348.88 435.68
  A 1.27 1.27 0.0 0 0 349.69 434.51
  L 349.77 424.90
  L 364.96 424.59
  A 0.84 0.84 0.0 0 0 365.78 423.75
  L 365.76 415.30
  A 0.59 0.58 -1.0 0 1 366.34 414.71
  L 382.16 414.66
  Z"
/>
<path fill="#151a2e" d="
  M 349.38 420.43
  L 349.77 424.90
  L 349.69 434.51
  A 1.27 1.27 0.0 0 1 348.88 435.68
  L 333.91 441.54
  L 334.48 426.64
  Q 343.57 426.00 349.38 420.43
  Z"
/>
<path fill="#151a2e" d="
  M 479.07 421.22
  L 479.49 424.76
  L 479.35 435.25
  A 0.73 0.72 81.2 0 1 478.85 435.94
  L 464.35 440.66
  Q 463.27 433.01 464.87 426.76
  Q 473.22 425.24 479.07 421.22
  Z"
/>
<path fill="#861743" d="
  M 334.48 426.64
  L 333.91 441.54
  Q 327.46 440.02 321.17 436.82
  Q 319.86 436.15 316.70 436.21
  L 317.14 422.64
  Q 322.94 425.79 329.18 426.58
  Q 330.22 426.71 331.83 426.61
  Q 333.45 426.52 334.48 426.64
  Z"
/>
<path fill="#078670" d="
  M 464.87 426.76
  Q 463.27 433.01 464.35 440.66
  C 459.71 441.03 452.12 437.85 447.72 436.10
  A 1.11 1.10 11.2 0 1 447.02 435.06
  L 447.09 424.62
  Q 446.92 422.94 448.37 423.39
  C 452.84 424.78 456.42 425.26 460.04 426.95
  A 1.36 1.31 47.5 0 0 461.01 427.01
  Q 463.64 426.17 464.87 426.76
  Z"
/>
<path fill="#ffab1f" d="
  M 415.07 438.88
  C 413.02 440.36 411.07 441.93 408.84 442.85
  Q 403.67 444.97 398.46 445.09
  Q 388.82 445.15 382.16 440.72
  C 381.15 432.26 397.34 431.59 402.75 432.18
  Q 411.18 433.09 415.07 438.88
  Z"
/>
<path fill="#151a2e" d="
  M 415.07 438.88
  L 415.09 442.01
  C 415.03 444.53 415.65 452.07 414.44 454.11
  L 399.25 459.06
  L 398.46 445.09
  Q 403.67 444.97 408.84 442.85
  C 411.07 441.93 413.02 440.36 415.07 438.88
  Z"
/>
<path fill="#f72f20" d="
  M 382.16 440.72
  Q 388.82 445.15 398.46 445.09
  L 399.25 459.06
  Q 397.92 459.87 396.29 459.17
  Q 387.19 455.21 382.27 453.88
  L 382.16 440.72
  Z"
/>
<path fill="#a8c0d8" d="
  M 415.09 442.01
  L 429.51 441.92
  A 1.21 1.21 0.0 0 1 430.72 443.06
  L 431.41 454.14
  L 414.44 454.11
  C 415.65 452.07 415.03 444.53 415.09 442.01
  Z"
/>
<path fill="#ffab1f" d="
  M 382.27 453.88
  Q 387.19 455.21 396.29 459.17
  Q 397.92 459.87 399.25 459.06
  L 414.44 454.11
  L 431.41 454.14
  L 510.54 454.20
  L 510.63 471.56
  L 286.48 471.54
  L 286.33 454.03
  L 382.27 453.88
  Z"
/>
<path fill="#fa2b4e" d="
  M 510.63 471.56
  L 510.55 491.68
  L 286.47 491.74
  L 286.48 471.54
  L 510.63 471.56
  Z"
/>
<path fill="#861743" d="
  M 510.55 491.68
  L 510.47 508.76
  A 0.73 0.72 0.0 0 1 509.74 509.48
  L 287.49 509.54
  A 0.96 0.95 89.7 0 1 286.54 508.59
  L 286.47 491.74
  L 510.55 491.68
  Z"
/>
<path fill="#0954a4" d="
  M 348.19 547.15
  Q 339.46 547.31 331.25 547.29
  Q 330.85 547.29 330.25 547.72
  Q 328.99 547.04 327.25 547.05
  Q 317.45 547.06 307.38 546.91
  L 307.31 529.79
  A 1.01 1.01 0.0 0 1 308.32 528.78
  L 347.18 528.70
  A 1.57 1.57 0.0 0 1 348.75 530.32
  L 348.19 547.15
  Z"
/>
<path fill="#0954a4" d="
  M 489.41 546.92
  L 466.53 547.70
  Q 466.44 547.60 466.02 547.39
  Q 465.76 547.27 465.45 547.27
  Q 457.05 547.37 448.67 547.09
  L 448.34 530.07
  A 0.92 0.91 89.7 0 1 449.25 529.14
  L 488.48 529.06
  Q 489.41 529.06 489.41 529.99
  L 489.41 546.92
  Z"
/>
<path fill="#fa2b4e" d="
  M 430.98 587.66
  L 365.82 587.55
  L 365.77 540.95
  A 0.47 0.46 -90.0 0 1 366.23 540.48
  L 430.03 540.25
  A 0.97 0.97 0.0 0 1 431.00 541.22
  L 430.98 587.66
  Z
  M 414.48 556.27
  A 0.61 0.61 0.0 0 0 413.87 555.66
  L 382.49 555.66
  A 0.61 0.61 0.0 0 0 381.88 556.27
  L 381.88 575.91
  A 0.61 0.61 0.0 0 0 382.49 576.52
  L 413.87 576.52
  A 0.61 0.61 0.0 0 0 414.48 575.91
  L 414.48 556.27
  Z"
/>
<path fill="#1cc19c" d="
  M 489.41 546.92
  L 489.34 565.24
  L 466.52 565.12
  L 466.53 547.70
  L 489.41 546.92
  Z"
/>
<path fill="#1cc19c" d="
  M 307.38 546.91
  Q 317.45 547.06 327.25 547.05
  Q 328.99 547.04 330.25 547.72
  L 330.11 565.10
  L 307.12 565.25
  L 307.38 546.91
  Z"
/>
<path fill="#ffab1f" d="
  M 348.19 547.15
  L 348.22 564.72
  Q 348.22 564.97 348.03 565.14
  Q 347.68 565.45 347.74 565.13
  L 330.11 565.10
  L 330.25 547.72
  Q 330.85 547.29 331.25 547.29
  Q 339.46 547.31 348.19 547.15
  Z"
/>
<path fill="#ffab1f" d="
  M 448.67 547.09
  Q 457.05 547.37 465.45 547.27
  Q 465.76 547.27 466.02 547.39
  Q 466.44 547.60 466.53 547.70
  L 466.52 565.12
  L 448.64 565.34
  L 448.67 547.09
  Z"
/>
<rect fill="#151a2e" x="381.88" y="555.66" width="32.60" height="20.86" rx="0.61"/>
<path fill="#078670" d="
  M 307.12 565.25
  L 330.11 565.10
  L 347.74 565.13
  C 349.40 567.97 348.51 578.74 348.47 582.62
  L 307.20 582.81
  L 307.12 565.25
  Z"
/>
<path fill="#078670" d="
  M 466.52 565.12
  L 489.34 565.24
  L 489.44 582.37
  L 448.44 582.51
  L 448.64 565.34
  L 466.52 565.12
  Z"
/>
<path fill="#0954a4" d="
  M 489.44 582.37
  L 489.45 597.67
  A 0.96 0.96 0.0 0 1 488.49 598.64
  L 448.98 598.84
  A 0.68 0.67 0.4 0 1 448.30 598.16
  L 448.44 582.51
  L 489.44 582.37
  Z"
/>
<path fill="#0954a4" d="
  M 348.47 582.62
  L 348.40 598.03
  A 0.66 0.66 0.0 0 1 347.74 598.69
  L 308.22 598.73
  A 0.88 0.88 0.0 0 1 307.34 597.86
  L 307.20 582.81
  L 348.47 582.62
  Z"
/>
<path fill="#861743" d="
  M 430.98 587.66
  L 430.86 596.99
  A 1.35 1.34 0.2 0 1 429.51 598.32
  L 367.22 598.53
  Q 366.14 598.54 366.11 597.46
  L 365.82 587.55
  L 430.98 587.66
  Z"
/>
</svg>
